<?xml version="1.0" standalone="no"?>
<!DOCTYPE svg PUBLIC "-//W3C//DTD SVG 20010904//EN"
 "http://www.w3.org/TR/2001/REC-SVG-20010904/DTD/svg10.dtd">
<svg version="1.0" xmlns="http://www.w3.org/2000/svg"
 width="580.000000pt" height="705.000000pt" viewBox="0 0 580.000000 705.000000"
 preserveAspectRatio="xMidYMid meet">

<g transform="translate(0.000000,705.000000) scale(0.100000,-0.100000)"
fill="#000000" stroke="none">
<path d="M2733 6713 c-24 -2 -43 -8 -43 -12 0 -5 -46 -11 -101 -14 -56 -3
-105 -10 -108 -15 -3 -5 -31 -12 -61 -14 -30 -3 -56 -11 -58 -17 -2 -6 -27
-11 -58 -11 -41 0 -54 -4 -54 -15 0 -11 -12 -15 -45 -15 -33 0 -45 -4 -45 -15
0 -11 -12 -15 -45 -15 -33 0 -45 -4 -45 -15 0 -9 -10 -15 -26 -15 -14 0 -32
-7 -40 -15 -9 -8 -28 -15 -44 -15 -16 0 -30 -7 -34 -15 -3 -8 -12 -15 -21 -15
-8 0 -15 -4 -15 -10 0 -5 -18 -13 -40 -16 -39 -6 -40 -8 -40 -48 -6 -547 -7
-875 -3 -893 3 -12 15 -24 29 -27 13 -4 24 -11 24 -16 0 -6 6 -10 13 -10 7 0
20 -9 30 -20 9 -11 24 -20 32 -20 8 0 15 -4 15 -10 0 -5 7 -10 15 -10 8 0 15
-7 15 -15 0 -8 9 -15 19 -15 11 0 26 -7 35 -15 8 -8 19 -15 25 -15 6 0 11 -6
11 -14 0 -8 11 -17 25 -20 14 -4 25 -11 25 -16 0 -6 9 -10 20 -10 11 0 20 -7
20 -15 0 -8 7 -15 15 -15 8 0 15 -4 15 -10 0 -5 11 -12 25 -16 14 -3 25 -12
25 -20 0 -8 9 -14 20 -14 11 0 20 -7 20 -15 0 -9 9 -15 25 -15 16 0 25 -6 25
-15 0 -8 6 -15 14 -15 8 0 16 -7 20 -15 3 -8 12 -15 21 -15 8 0 15 -4 15 -10
0 -5 11 -12 25 -16 14 -3 25 -10 25 -15 0 -5 7 -9 15 -9 8 0 15 -6 15 -14 0
-8 12 -17 27 -21 15 -3 31 -12 35 -18 10 -17 73 -13 92 6 10 9 22 17 27 17 6
0 20 11 33 25 13 14 29 25 35 25 6 0 14 6 17 14 3 8 16 17 29 20 15 4 25 15
29 33 2 16 5 192 4 392 0 292 3 366 14 373 10 7 10 11 1 15 -16 6 -19 243 -3
243 6 0 10 7 10 15 0 8 -4 15 -10 15 -15 0 -12 57 3 64 10 5 10 7 0 12 -7 3
-13 21 -13 39 0 18 6 36 13 39 10 5 10 7 0 12 -7 3 -13 21 -13 39 0 18 6 36
13 39 10 5 10 7 0 12 -15 7 -18 64 -3 64 6 0 10 7 10 15 0 8 -4 15 -10 15 -5
0 -10 14 -10 30 0 17 5 30 10 30 6 0 10 7 10 15 0 8 -4 15 -10 15 -5 0 -10 7
-10 15 0 8 5 15 10 15 6 0 10 4 10 10 0 15 -33 50 -45 48 -5 -1 -29 -3 -52 -5z"/>
<path d="M3066 6698 c-14 -16 -16 -105 -16 -788 0 -714 1 -771 17 -790 10 -11
23 -20 30 -20 7 0 13 -4 13 -10 0 -5 7 -10 15 -10 8 0 23 -9 32 -20 10 -11 21
-20 26 -20 5 0 22 -14 39 -31 25 -24 36 -29 57 -24 14 4 28 10 31 15 3 5 18
12 33 15 15 4 27 11 27 16 0 5 7 9 15 9 8 0 15 7 15 15 0 8 7 15 15 15 8 0 15
6 15 14 0 8 14 17 30 21 17 4 30 11 30 16 0 5 7 9 15 9 8 0 15 7 15 15 0 9 9
15 25 15 16 0 25 6 25 15 0 8 9 15 20 15 11 0 20 7 20 15 0 8 7 15 15 15 8 0
15 7 15 15 0 9 9 15 25 15 16 0 25 6 25 15 0 8 9 15 20 15 11 0 20 7 20 15 0
9 9 15 25 15 16 0 25 6 25 15 0 8 7 15 15 15 8 0 15 7 15 15 0 8 7 15 15 15 8
0 15 4 15 9 0 5 12 12 27 16 15 3 37 17 48 30 12 12 31 26 43 29 11 4 23 13
26 21 3 8 10 15 16 15 5 0 19 8 30 17 19 17 20 29 20 245 0 145 4 228 10 228
6 0 10 14 10 30 0 17 -4 30 -10 30 -5 0 -10 7 -10 15 0 8 5 15 10 15 6 0 10
65 10 175 0 110 -4 175 -10 175 -5 0 -10 6 -10 13 0 16 -36 47 -54 47 -8 0
-21 6 -28 13 -7 8 -31 17 -53 20 -22 4 -41 11 -43 17 -2 5 -17 10 -33 10 -19
0 -29 5 -29 15 0 9 -10 15 -26 15 -14 0 -32 7 -40 15 -9 8 -24 15 -35 15 -10
0 -19 -7 -19 -15 0 -11 -11 -15 -40 -15 -38 0 -40 2 -40 30 0 27 -3 30 -31 30
-17 0 -37 7 -45 15 -11 10 -37 15 -85 15 -49 0 -75 5 -85 15 -11 11 -37 15
-89 15 -49 0 -75 4 -77 12 -3 8 -26 13 -61 13 -42 1 -59 -3 -71 -17z m274 -58
c0 -5 -4 -10 -10 -10 -5 0 -10 5 -10 10 0 6 5 10 10 10 6 0 10 -4 10 -10z"/>
<path d="M1540 6266 c0 -8 -11 -17 -25 -20 -14 -4 -25 -11 -25 -16 0 -6 -7
-10 -15 -10 -9 0 -18 -7 -21 -15 -4 -8 -12 -15 -20 -15 -8 0 -14 -7 -14 -15 0
-8 -7 -15 -15 -15 -8 0 -15 -7 -15 -15 0 -9 -9 -15 -25 -15 -16 0 -25 -6 -25
-15 0 -8 -7 -15 -15 -15 -8 0 -15 -7 -15 -15 0 -8 -7 -15 -15 -15 -8 0 -15 -7
-15 -15 0 -8 -7 -15 -15 -15 -8 0 -15 -7 -15 -15 0 -8 -7 -15 -15 -15 -8 0
-15 -7 -15 -15 0 -8 -7 -15 -15 -15 -13 0 -15 -49 -15 -380 0 -323 2 -380 14
-380 8 0 21 7 30 15 8 8 22 15 30 15 9 0 16 7 16 15 0 8 7 15 15 15 8 0 15 4
15 10 0 5 11 12 25 16 14 3 25 12 25 20 0 8 6 14 14 14 8 0 16 7 20 15 3 8 17
15 31 15 16 0 25 6 25 15 0 8 5 15 10 15 6 0 21 11 33 24 13 14 35 28 50 31
l27 7 0 409 c0 357 -2 409 -15 409 -8 0 -15 -6 -15 -14z"/>
<path d="M4293 6274 c-10 -4 -13 -93 -13 -395 0 -340 2 -389 15 -389 8 0 23
-9 32 -20 10 -11 23 -20 30 -20 7 0 13 -4 13 -10 0 -5 6 -10 14 -10 8 0 28
-13 44 -30 17 -16 35 -30 42 -30 6 0 13 -7 16 -15 4 -8 17 -15 30 -15 15 0 24
-6 24 -15 0 -8 7 -15 15 -15 8 0 15 -7 15 -15 0 -8 9 -15 19 -15 11 0 26 -7
35 -15 8 -8 19 -15 25 -15 9 0 16 333 14 704 0 35 -5 51 -16 58 -10 5 -17 14
-17 19 0 13 -25 39 -37 39 -11 0 -43 37 -43 50 0 6 -9 10 -20 10 -11 0 -20 7
-20 15 0 8 -7 15 -15 15 -8 0 -15 7 -15 15 0 9 -9 15 -25 15 -16 0 -25 6 -25
15 0 8 -7 15 -15 15 -8 0 -15 7 -15 15 0 8 -6 15 -14 15 -8 0 -16 4 -18 10 -4
11 -58 21 -75 14z"/>
<path d="M4130 5295 c0 -9 -9 -15 -25 -15 -16 0 -25 -6 -25 -15 0 -8 -9 -15
-20 -15 -11 0 -20 -7 -20 -15 0 -9 -9 -15 -25 -15 -16 0 -25 -6 -25 -15 0 -8
-6 -15 -14 -15 -8 0 -16 -7 -20 -15 -3 -8 -17 -15 -31 -15 -16 0 -25 -6 -25
-15 0 -8 -7 -15 -15 -15 -8 0 -15 -7 -15 -15 0 -8 -7 -15 -15 -15 -8 0 -15 -4
-15 -10 0 -5 -7 -10 -15 -10 -8 0 -15 -6 -15 -14 0 -8 -13 -17 -30 -21 -16 -4
-30 -11 -30 -16 0 -5 -7 -9 -15 -9 -8 0 -15 -6 -15 -14 0 -8 -11 -17 -25 -20
-14 -4 -25 -11 -25 -16 0 -6 -7 -10 -15 -10 -9 0 -18 -7 -21 -15 -4 -8 -12
-15 -20 -15 -8 0 -14 -7 -14 -15 0 -9 -9 -15 -25 -15 -16 0 -25 -6 -25 -15 0
-8 -9 -15 -20 -15 -11 0 -20 -7 -20 -15 0 -9 -9 -15 -25 -15 -16 0 -25 -6 -25
-15 0 -8 -7 -15 -15 -15 -8 0 -15 -7 -15 -15 0 -8 -7 -15 -15 -15 -13 0 -15
-23 -15 -151 l0 -151 27 7 c15 3 37 17 48 30 12 12 33 26 46 30 13 4 36 21 52
36 16 16 35 29 43 29 8 0 14 5 14 10 0 6 6 10 13 10 7 0 20 9 30 20 9 11 24
20 32 20 8 0 15 5 15 10 0 6 7 10 15 10 8 0 15 7 15 15 0 8 7 15 15 15 9 0 18
7 21 15 4 8 17 15 30 15 15 0 24 6 24 15 0 8 7 15 15 15 8 0 15 7 15 15 0 9 9
15 25 15 16 0 25 6 25 15 0 8 9 15 20 15 11 0 20 7 20 15 0 8 5 15 11 15 6 0
17 7 25 15 9 8 29 15 45 15 19 0 29 -5 29 -15 0 -8 9 -15 20 -15 11 0 20 -7
20 -15 0 -9 9 -15 25 -15 16 0 25 -6 25 -15 0 -8 6 -15 14 -15 8 0 16 -7 20
-15 3 -8 17 -15 31 -15 16 0 25 -6 25 -15 0 -8 7 -15 15 -15 8 0 15 -7 15 -15
0 -10 10 -15 30 -15 20 0 30 -5 30 -15 0 -8 7 -15 15 -15 8 0 15 -7 15 -15 0
-8 7 -15 15 -15 8 0 15 -4 15 -10 0 -5 11 -12 24 -16 14 -3 27 -12 30 -20 3
-8 12 -14 21 -14 8 0 15 -4 15 -10 0 -5 11 -12 25 -16 14 -3 25 -10 25 -15 0
-5 7 -9 15 -9 8 0 15 -7 15 -15 0 -8 7 -15 15 -15 9 0 18 -7 21 -15 4 -8 17
-15 30 -15 l24 0 0 230 c0 203 -2 232 -17 250 -10 11 -23 20 -30 20 -7 0 -13
5 -13 10 0 6 -7 10 -15 10 -8 0 -15 6 -15 14 0 8 -11 17 -25 20 -14 4 -25 11
-25 16 0 6 -7 10 -15 10 -9 0 -18 6 -21 14 -3 8 -16 17 -30 20 -13 4 -24 11
-24 16 0 6 -7 10 -15 10 -8 0 -15 7 -15 15 0 8 -9 15 -19 15 -11 0 -26 7 -35
15 -8 8 -19 15 -25 15 -6 0 -11 6 -11 14 0 8 -11 17 -25 20 -14 4 -25 11 -25
16 0 6 -9 10 -20 10 -11 0 -20 7 -20 15 0 8 -7 15 -15 15 -8 0 -15 7 -15 15 0
10 -10 15 -30 15 -20 0 -30 -5 -30 -15z"/>
<path d="M1660 5265 c0 -8 -7 -15 -15 -15 -8 0 -15 -7 -15 -15 0 -10 -10 -15
-30 -15 -20 0 -30 -5 -30 -15 0 -8 -7 -15 -15 -15 -8 0 -15 -7 -15 -15 0 -8
-7 -15 -15 -15 -8 0 -15 -7 -15 -15 0 -10 -10 -15 -30 -15 -20 0 -30 -5 -30
-15 0 -8 -7 -15 -15 -15 -8 0 -15 -4 -15 -9 0 -5 -10 -13 -22 -16 -11 -4 -31
-18 -43 -31 -12 -13 -26 -24 -31 -24 -5 0 -17 -9 -27 -20 -9 -11 -24 -20 -32
-20 -8 0 -15 -4 -15 -10 0 -5 -7 -10 -15 -10 -8 0 -15 -7 -15 -15 0 -8 -7 -15
-15 -15 -13 0 -15 -29 -15 -205 0 -176 2 -205 15 -205 8 0 15 4 15 9 0 5 25
13 55 16 30 4 55 11 55 15 0 4 14 10 31 14 17 3 44 19 60 36 17 16 37 30 45
30 8 0 14 5 14 10 0 6 7 10 15 10 8 0 15 6 15 14 0 8 14 17 30 21 17 4 30 11
30 16 0 5 7 9 15 9 8 0 15 7 15 15 0 8 7 15 15 15 8 0 15 7 15 15 0 10 10 15
30 15 20 0 30 5 30 15 0 8 7 15 15 15 8 0 15 7 15 15 0 8 7 15 15 15 8 0 15 4
15 10 0 5 12 13 28 16 15 4 31 12 35 18 6 8 10 7 14 -1 2 -7 13 -13 24 -13 10
0 19 -7 19 -15 0 -9 9 -15 25 -15 16 0 25 -6 25 -15 0 -10 10 -15 30 -15 20 0
30 -5 30 -15 0 -8 7 -15 15 -15 8 0 15 -7 15 -15 0 -8 7 -15 15 -15 8 0 15 -4
15 -9 0 -5 14 -12 30 -16 17 -4 30 -13 30 -21 0 -8 7 -14 15 -14 8 0 15 -4 15
-10 0 -5 11 -12 24 -16 14 -3 27 -12 30 -20 3 -8 12 -14 21 -14 8 0 15 -4 15
-10 0 -5 11 -12 24 -16 14 -3 27 -12 30 -20 3 -8 12 -14 21 -14 8 0 15 -4 15
-9 0 -5 10 -13 22 -16 11 -4 31 -18 43 -30 11 -13 33 -27 48 -30 l27 -7 0 151
c0 128 -2 151 -15 151 -8 0 -15 7 -15 15 0 8 -7 15 -15 15 -8 0 -15 7 -15 15
0 9 -9 15 -25 15 -16 0 -25 6 -25 15 0 8 -9 15 -20 15 -11 0 -20 7 -20 15 0 8
-7 15 -15 15 -8 0 -15 4 -15 10 0 5 -11 12 -24 16 -14 3 -27 12 -30 20 -3 8
-12 14 -21 14 -8 0 -15 4 -15 10 0 5 -11 12 -25 16 -14 3 -25 12 -25 20 0 8
-7 14 -15 14 -8 0 -15 5 -15 10 0 6 -7 10 -15 10 -8 0 -15 6 -15 14 0 8 -13
17 -30 21 -16 4 -30 11 -30 16 0 5 -7 9 -15 9 -8 0 -15 6 -15 14 0 8 -11 17
-25 20 -14 4 -25 11 -25 16 0 6 -9 10 -20 10 -11 0 -20 6 -20 14 0 8 -11 17
-25 20 -14 4 -25 11 -25 16 0 6 -7 10 -15 10 -8 0 -15 7 -15 15 0 8 -7 15 -16
15 -8 0 -22 7 -30 15 -9 9 -34 15 -60 15 -32 0 -44 -4 -44 -15z"/>
<path d="M2913 4923 c-13 -2 -23 -9 -23 -14 0 -5 -7 -9 -15 -9 -8 0 -15 -6
-15 -14 0 -8 -11 -17 -25 -20 -14 -4 -25 -11 -25 -16 0 -6 -9 -10 -20 -10 -11
0 -20 -7 -20 -15 0 -8 -7 -15 -15 -15 -8 0 -15 -7 -15 -15 0 -9 -9 -15 -25
-15 l-25 0 0 -114 c0 -100 2 -114 18 -117 9 -2 117 -3 240 -1 l222 3 0 114 c0
108 -1 115 -20 115 -11 0 -20 7 -20 15 0 9 -9 15 -25 15 -16 0 -25 6 -25 15 0
8 -7 15 -15 15 -8 0 -15 7 -15 15 0 8 -7 15 -15 15 -8 0 -15 4 -15 9 0 5 -13
12 -30 16 -16 4 -30 13 -30 21 0 14 -6 15 -47 7z"/>
<path d="M4020 4620 c0 -5 -6 -10 -13 -10 -7 0 -20 -9 -30 -20 -9 -11 -24 -20
-32 -20 -8 0 -15 -4 -15 -10 0 -5 -7 -10 -15 -10 -8 0 -15 -6 -15 -14 0 -8
-13 -17 -30 -21 -16 -4 -30 -11 -30 -16 0 -5 -7 -9 -15 -9 -8 0 -15 -7 -15
-15 0 -8 -7 -15 -15 -15 -8 0 -15 -7 -15 -15 0 -9 -9 -15 -25 -15 -16 0 -25
-6 -25 -15 0 -8 -9 -15 -20 -15 -11 0 -20 -7 -20 -15 0 -9 -9 -15 -25 -15 -16
0 -25 -6 -25 -15 0 -8 -7 -15 -15 -15 -8 0 -15 -7 -15 -15 0 -8 -9 -15 -20
-15 -11 0 -20 -7 -20 -15 0 -9 -9 -15 -24 -15 -13 0 -26 -7 -30 -15 -3 -8 -12
-15 -21 -15 -8 0 -15 -4 -15 -10 0 -5 -11 -12 -25 -16 -14 -3 -25 -8 -25 -10
0 -8 71 -74 80 -74 6 0 10 -6 10 -14 0 -8 11 -17 25 -20 14 -4 25 -11 25 -16
0 -6 7 -10 15 -10 8 0 15 -7 15 -15 0 -8 7 -15 15 -15 9 0 18 -7 21 -15 4 -8
12 -15 20 -15 8 0 14 -7 14 -15 0 -11 12 -15 45 -15 25 0 45 4 45 10 0 5 11
12 25 16 14 3 25 12 25 20 0 9 11 14 30 14 20 0 30 5 30 15 0 8 7 15 15 15 8
0 15 7 15 15 0 8 7 15 15 15 8 0 15 5 15 10 0 6 7 10 15 10 8 0 23 9 32 20 10
11 23 20 30 20 7 0 13 4 13 10 0 5 11 12 25 16 14 3 25 10 25 15 0 5 7 9 15 9
8 0 15 7 15 15 0 8 7 15 15 15 9 0 18 6 21 14 3 8 16 17 30 20 13 4 24 11 24
16 0 6 7 10 15 10 8 0 15 7 15 15 0 10 10 15 30 15 20 0 30 5 30 15 0 8 7 15
15 15 8 0 15 7 15 15 0 8 7 15 15 15 8 0 15 7 15 15 0 8 -7 15 -15 15 -8 0
-15 4 -15 9 0 5 -13 12 -30 16 -16 4 -30 13 -30 21 0 8 -7 14 -15 14 -8 0 -15
7 -15 15 0 8 -7 15 -15 15 -8 0 -15 4 -15 9 0 5 -13 12 -30 16 -16 4 -30 13
-30 21 0 8 -7 14 -15 14 -8 0 -15 4 -15 9 0 5 -11 12 -25 15 -14 4 -25 11 -25
16 0 6 -7 10 -15 10 -8 0 -15 -4 -15 -10z"/>
<path d="M1800 4603 c-8 -3 -19 -12 -23 -19 -4 -8 -15 -14 -22 -14 -8 0 -15
-4 -15 -10 0 -5 -11 -12 -24 -16 -18 -4 -25 -14 -30 -44 -6 -37 -7 -38 -58
-42 -29 -3 -54 -11 -56 -17 -2 -6 -10 -11 -18 -11 -8 0 -14 -7 -14 -15 0 -8
-4 -15 -10 -15 -5 0 -10 -7 -10 -15 0 -9 9 -15 25 -15 16 0 25 -6 25 -16 0
-12 7 -15 26 -11 20 3 28 0 31 -14 3 -11 12 -19 19 -19 8 0 14 -7 14 -15 0 -8
7 -15 15 -15 8 0 15 -7 15 -15 0 -8 7 -15 15 -15 8 0 15 -4 15 -9 0 -5 14 -12
30 -16 17 -4 30 -13 30 -21 0 -8 7 -14 15 -14 8 0 15 -4 15 -10 0 -5 7 -10 15
-10 8 0 23 -9 32 -20 10 -11 23 -20 30 -20 7 0 13 -4 13 -10 0 -5 11 -12 25
-16 14 -3 25 -10 25 -15 0 -5 7 -9 15 -9 8 0 15 -6 15 -14 0 -8 14 -17 30 -21
17 -4 30 -11 30 -16 0 -5 7 -9 15 -9 8 0 15 -7 15 -15 0 -8 7 -15 15 -15 8 0
15 -7 15 -15 0 -9 9 -15 24 -15 13 0 26 7 30 15 3 8 12 15 21 15 8 0 15 7 15
15 0 8 7 15 15 15 8 0 15 7 15 15 0 9 9 15 25 15 16 0 25 6 25 15 0 8 5 15 10
15 6 0 27 18 48 39 21 22 50 43 65 46 37 10 38 50 2 59 -14 4 -25 11 -25 16 0
6 -9 10 -20 10 -11 0 -20 6 -20 14 0 8 -11 17 -25 20 -14 4 -25 11 -25 16 0 6
-7 10 -15 10 -8 0 -15 7 -15 15 0 8 -9 15 -20 15 -11 0 -20 7 -20 15 0 9 -9
15 -25 15 -16 0 -25 6 -25 15 0 8 -9 15 -20 15 -11 0 -20 4 -20 10 0 5 -11 12
-25 16 -14 3 -25 12 -25 20 0 8 -5 14 -11 14 -6 0 -17 7 -25 15 -9 8 -24 15
-35 15 -10 0 -19 7 -19 15 0 8 -7 15 -15 15 -8 0 -15 4 -15 9 0 5 -11 12 -25
15 -14 4 -25 11 -25 16 0 6 -7 10 -15 10 -7 0 -18 6 -22 14 -10 16 -43 26 -63
19z"/>
<path d="M2686 4278 c-3 -18 -4 -212 -3 -430 2 -311 5 -398 15 -398 6 0 12 -7
12 -15 0 -8 6 -15 14 -15 8 0 16 -7 20 -15 3 -8 12 -15 21 -15 8 0 15 -4 15
-10 0 -5 11 -12 24 -16 14 -3 27 -12 30 -20 3 -8 10 -14 16 -14 6 0 18 -7 26
-15 22 -22 81 -19 101 5 10 11 23 20 30 20 7 0 13 5 13 10 0 6 7 10 15 10 8 0
15 7 15 15 0 9 9 15 25 15 16 0 25 6 25 15 0 8 9 15 20 15 11 0 20 7 20 15 0
8 7 15 15 15 13 0 15 54 15 430 l0 430 -240 0 -239 0 -5 -32z"/>
<path d="M4530 4253 c-8 -4 -21 -12 -28 -20 -7 -7 -19 -13 -27 -13 -7 0 -15
-7 -19 -15 -3 -8 -17 -15 -31 -15 -16 0 -25 -6 -25 -15 0 -8 -5 -15 -10 -15
-6 0 -21 -11 -33 -24 -13 -14 -35 -28 -50 -31 -15 -4 -27 -11 -27 -16 0 -5 -7
-9 -15 -9 -8 0 -15 -6 -15 -14 0 -8 -11 -17 -25 -20 -14 -4 -25 -11 -25 -16 0
-6 -9 -10 -20 -10 -11 0 -20 -7 -20 -15 0 -8 -7 -15 -15 -15 -8 0 -15 -7 -15
-15 0 -10 -10 -15 -30 -15 -20 0 -30 -5 -30 -15 0 -8 -7 -15 -15 -15 -8 0 -15
-7 -15 -15 0 -9 -9 -15 -25 -15 -16 0 -25 -6 -25 -15 0 -8 -6 -15 -14 -15 -8
0 -16 -7 -20 -15 -3 -8 -17 -15 -31 -15 -16 0 -25 -6 -25 -15 0 -8 -7 -15 -15
-15 -8 0 -15 -7 -15 -15 0 -8 -7 -15 -15 -15 -8 0 -15 -4 -15 -9 0 -5 -13 -12
-30 -16 -16 -4 -30 -13 -30 -21 0 -8 -6 -14 -14 -14 -8 0 -16 -4 -18 -9 -1 -5
-15 -13 -30 -16 -20 -5 -31 -2 -45 14 -9 12 -21 21 -26 21 -12 0 -37 27 -37
39 0 6 -7 11 -15 11 -9 0 -18 6 -21 14 -3 8 -16 17 -30 20 -13 4 -24 11 -24
16 0 6 -7 10 -15 10 -8 0 -15 7 -15 15 0 8 -7 15 -15 15 -8 0 -15 7 -15 15 0
8 -7 15 -15 15 -8 0 -15 7 -15 15 0 8 -7 15 -15 15 -13 0 -15 -28 -15 -195 0
-167 2 -195 15 -195 8 0 15 -4 15 -10 0 -5 7 -10 15 -10 8 0 15 -9 15 -20 0
-15 7 -20 25 -20 16 0 25 -6 25 -15 0 -8 9 -15 20 -15 11 0 20 -4 20 -10 0 -5
11 -12 25 -16 14 -3 25 -12 25 -20 0 -8 6 -14 14 -14 8 0 16 -7 20 -15 3 -8
17 -15 31 -15 16 0 25 -6 25 -15 0 -8 6 -15 14 -15 8 0 16 -7 20 -15 3 -8 17
-15 31 -15 16 0 25 -6 25 -15 0 -8 7 -15 15 -15 8 0 15 -7 15 -15 0 -8 7 -15
15 -15 8 0 15 -4 15 -9 0 -5 12 -12 27 -16 15 -3 38 -18 51 -33 28 -30 81 -34
107 -8 9 9 22 16 30 16 7 0 15 7 19 15 3 8 12 15 21 15 8 0 15 4 15 9 0 5 10
13 22 16 11 4 31 17 42 30 12 12 32 26 45 30 13 4 34 18 46 31 12 13 27 24 34
24 6 0 11 7 11 15 0 9 9 15 25 15 14 0 28 7 31 15 4 8 12 15 20 15 8 0 14 7
14 15 0 8 7 15 15 15 8 0 15 7 15 15 0 10 10 15 30 15 23 0 30 4 30 20 0 11 7
20 15 20 8 0 15 7 15 15 0 9 9 15 25 15 16 0 25 6 25 15 0 8 7 15 15 15 8 0
15 5 15 10 0 6 8 14 18 17 41 16 42 21 42 312 0 243 -2 281 -15 281 -8 0 -15
5 -15 10 0 6 -7 10 -15 10 -8 0 -15 6 -15 14 0 19 -40 30 -70 19z"/>
<path d="M1300 4241 c0 -5 -10 -13 -22 -16 -11 -4 -31 -18 -43 -31 -12 -13
-27 -24 -34 -24 -8 0 -11 -79 -11 -285 0 -247 2 -285 15 -285 8 0 15 -4 15
-10 0 -5 7 -10 15 -10 8 0 15 -7 15 -15 0 -10 10 -15 30 -15 20 0 30 -5 30
-15 0 -8 7 -15 15 -15 8 0 15 -9 15 -20 0 -15 7 -20 25 -20 16 0 25 -6 25 -15
0 -8 9 -15 20 -15 11 0 20 -7 20 -15 0 -8 7 -15 15 -15 8 0 15 -4 15 -10 0 -5
11 -12 25 -16 14 -3 25 -12 25 -20 0 -8 7 -14 15 -14 8 0 15 -4 15 -9 0 -5 14
-12 30 -16 17 -4 30 -13 30 -21 0 -8 7 -14 15 -14 8 0 15 -4 15 -10 0 -5 7
-10 15 -10 8 0 23 -9 32 -20 10 -11 23 -20 30 -20 7 0 13 -4 13 -10 0 -5 7
-10 15 -10 8 0 15 -6 15 -14 0 -8 11 -17 25 -20 14 -4 25 -11 25 -16 0 -6 9
-10 20 -10 11 0 20 -7 20 -15 0 -9 9 -15 25 -15 16 0 25 6 25 15 0 8 9 15 20
15 11 0 20 4 20 10 0 5 11 12 25 16 14 3 25 12 25 20 0 8 7 14 15 14 8 0 15 4
15 9 0 5 14 12 30 16 17 4 30 13 30 21 0 8 7 14 15 14 8 0 15 5 15 10 0 6 6
10 14 10 8 0 27 13 43 28 15 16 36 31 46 35 9 3 17 11 17 17 0 5 7 10 15 10 8
0 15 7 15 15 0 9 9 15 25 15 14 0 28 7 31 15 4 8 17 15 30 15 15 0 24 6 24 15
0 8 7 15 15 15 8 0 15 9 15 20 0 11 7 20 15 20 8 0 15 7 15 15 0 8 7 15 15 15
13 0 15 26 15 175 l0 175 -25 0 c-16 0 -25 -6 -25 -15 0 -8 -6 -15 -14 -15 -8
0 -16 -7 -20 -15 -3 -8 -12 -15 -21 -15 -8 0 -15 -7 -15 -15 0 -8 -5 -15 -11
-15 -6 0 -24 -13 -41 -30 -16 -16 -34 -30 -39 -30 -6 0 -20 -10 -32 -23 -12
-13 -30 -26 -39 -30 -10 -3 -18 -11 -18 -17 0 -5 -4 -10 -10 -10 -5 0 -10 7
-10 15 0 8 -7 15 -15 15 -8 0 -15 4 -15 9 0 5 -13 12 -30 16 -16 4 -30 11 -30
16 0 5 -7 9 -15 9 -8 0 -15 7 -15 15 0 8 -7 15 -15 15 -8 0 -15 7 -15 15 0 10
-10 15 -30 15 -20 0 -30 5 -30 15 0 8 -7 15 -15 15 -8 0 -15 7 -15 15 0 9 -9
15 -25 15 -14 0 -28 7 -31 15 -4 8 -12 15 -20 15 -8 0 -14 7 -14 15 0 9 -9 15
-25 15 -16 0 -25 6 -25 15 0 8 -6 15 -14 15 -8 0 -16 7 -20 15 -3 8 -17 15
-31 15 -16 0 -25 6 -25 15 0 8 -6 15 -14 15 -8 0 -16 7 -20 15 -3 8 -14 15
-25 15 -10 0 -21 7 -25 15 -3 8 -12 15 -21 15 -8 0 -15 4 -15 10 0 5 -11 12
-24 16 -14 3 -27 12 -30 20 -3 8 -11 14 -17 14 -6 0 -22 11 -34 24 -12 13 -32
27 -43 31 -12 3 -22 11 -22 16 0 5 -7 9 -15 9 -9 0 -18 7 -21 15 -7 16 -34 21
-34 6z"/>
<path d="M4630 3315 c0 -8 7 -15 15 -15 8 0 15 7 15 15 0 8 -7 15 -15 15 -8 0
-15 -7 -15 -15z"/>
<path d="M1190 3290 c0 -5 7 -10 15 -10 8 0 15 5 15 10 0 6 -7 10 -15 10 -8 0
-15 -4 -15 -10z"/>
<path d="M3340 3291 c0 -5 -11 -12 -25 -15 -14 -4 -25 -11 -25 -16 0 -6 -7
-10 -15 -10 -9 0 -18 -6 -21 -14 -3 -8 -16 -17 -30 -20 -13 -4 -24 -11 -24
-16 0 -6 -7 -10 -15 -10 -9 0 -18 -6 -21 -14 -3 -8 -16 -17 -30 -20 -13 -4
-24 -11 -24 -16 0 -6 -7 -10 -15 -10 -8 0 -15 -7 -15 -15 0 -8 -7 -15 -15 -15
-13 0 -15 -25 -15 -165 l0 -165 25 0 c14 0 25 -4 25 -10 0 -5 9 -10 20 -10 11
0 20 5 20 10 0 15 57 12 64 -2 5 -10 7 -10 12 0 7 14 64 17 64 2 0 -5 14 -10
30 -10 18 0 33 -6 36 -15 4 -8 17 -15 30 -15 15 0 24 -6 24 -15 0 -8 7 -15 15
-15 8 0 15 -7 15 -15 0 -9 9 -15 25 -15 16 0 25 -6 25 -15 0 -8 9 -15 20 -15
11 0 20 -7 20 -15 0 -9 9 -15 25 -15 16 0 25 -6 25 -15 0 -8 7 -15 15 -15 8 0
15 -7 15 -15 0 -8 9 -15 20 -15 11 0 20 -7 20 -15 0 -8 5 -15 10 -15 7 0 10
-295 10 -865 0 -762 2 -865 15 -865 8 0 15 7 15 15 0 8 7 15 15 15 8 0 15 7
15 15 0 8 7 15 15 15 8 0 15 7 15 15 0 8 7 15 15 15 8 0 15 7 15 15 0 8 7 15
15 15 8 0 15 7 15 15 0 8 7 15 15 15 8 0 15 7 15 15 0 8 5 15 11 15 6 0 36 25
65 55 30 30 59 55 64 55 6 0 10 6 10 14 0 8 11 17 25 20 l25 6 1 583 c1 320 2
699 3 843 1 276 1 279 -46 297 -10 3 -18 11 -18 17 0 5 -6 10 -14 10 -8 0 -28
14 -44 30 -17 17 -35 30 -41 30 -6 0 -11 7 -11 15 0 10 -10 15 -30 15 -20 0
-30 5 -30 15 0 8 -7 15 -15 15 -8 0 -15 7 -15 15 0 9 -9 15 -25 15 -16 0 -25
6 -25 15 0 8 -9 15 -20 15 -11 0 -20 7 -20 15 0 8 -7 15 -15 15 -8 0 -15 7
-15 15 0 9 -9 15 -25 15 -16 0 -25 6 -25 15 0 8 -7 15 -16 15 -8 0 -29 14 -46
30 -16 17 -34 30 -39 30 -6 0 -20 11 -32 24 -13 14 -35 28 -50 31 -15 4 -27
13 -27 21 0 8 -7 14 -15 14 -8 0 -15 5 -15 10 0 6 -7 10 -15 10 -8 0 -15 -4
-15 -9z"/>
<path d="M2471 3273 c-20 -8 -51 -36 -51 -46 0 -20 -39 -49 -59 -42 -14 4 -23
1 -27 -8 -3 -9 -16 -18 -30 -21 -13 -4 -24 -11 -24 -16 0 -6 -7 -10 -15 -10
-8 0 -15 -7 -15 -15 0 -8 -9 -15 -20 -15 -11 0 -20 -7 -20 -15 0 -9 -9 -15
-25 -15 -16 0 -25 -6 -25 -15 0 -8 -7 -15 -15 -15 -8 0 -15 -7 -15 -15 0 -8
-9 -15 -20 -15 -11 0 -20 -4 -20 -10 0 -5 -11 -12 -25 -16 -14 -3 -25 -12 -25
-20 0 -8 -7 -14 -15 -14 -8 0 -15 -7 -15 -15 0 -9 -9 -15 -24 -15 -13 0 -26
-7 -30 -15 -3 -8 -11 -15 -17 -15 -6 0 -22 -11 -34 -24 -12 -13 -32 -27 -43
-31 -12 -3 -22 -11 -22 -16 0 -5 -6 -9 -14 -9 -7 0 -16 -10 -20 -22 -3 -13 -6
-152 -6 -310 0 -185 -4 -288 -10 -288 -5 0 -10 -13 -10 -30 0 -16 5 -30 10
-30 6 0 10 -37 10 -90 0 -53 -4 -90 -10 -90 -5 0 -10 -11 -10 -25 0 -14 5 -25
10 -25 6 0 10 -37 10 -90 0 -53 -4 -90 -10 -90 -5 0 -10 -7 -10 -15 0 -8 5
-15 10 -15 15 0 13 -147 -2 -154 -10 -5 -10 -7 0 -12 14 -7 17 -74 2 -74 -5 0
-10 -11 -10 -25 0 -14 5 -25 10 -25 6 0 10 -7 10 -15 0 -8 -4 -15 -10 -15 -6
0 -10 -47 -10 -120 0 -73 4 -120 10 -120 6 0 10 -6 10 -14 0 -15 105 -126 119
-126 5 0 23 -13 39 -30 17 -16 35 -30 41 -30 6 0 11 -7 11 -15 0 -8 7 -15 15
-15 8 0 15 -7 15 -15 0 -8 7 -15 15 -15 8 0 15 -7 15 -15 0 -8 7 -15 15 -15 8
0 15 -7 15 -15 0 -8 7 -15 15 -15 8 0 15 -7 15 -15 0 -9 9 -15 25 -15 23 0 25
4 25 45 0 25 -4 45 -10 45 -5 0 -10 7 -10 15 0 8 5 15 10 15 6 0 10 14 10 30
0 17 -4 30 -10 30 -5 0 -10 7 -10 15 0 8 5 15 10 15 15 0 12 57 -2 63 -10 4
-10 8 -2 14 9 6 13 200 15 725 3 566 7 718 17 718 6 0 12 7 12 15 0 8 9 15 20
15 11 0 20 7 20 15 0 9 9 15 25 15 16 0 25 6 25 15 0 8 7 15 15 15 8 0 15 7
15 15 0 8 6 15 14 15 8 0 16 7 20 15 3 8 17 15 31 15 16 0 25 6 25 15 0 8 7
15 15 15 8 0 15 5 15 10 0 6 7 10 15 10 8 0 15 6 15 14 0 21 33 26 168 26 94
0 127 3 138 14 21 22 21 336 -1 336 -8 0 -15 7 -15 15 0 9 -9 15 -25 15 -16 0
-25 6 -25 15 0 8 -7 15 -15 15 -8 0 -15 5 -15 10 0 6 -6 10 -13 10 -7 0 -20 9
-30 20 -9 11 -24 20 -32 20 -8 0 -15 5 -15 10 0 6 -6 10 -13 10 -7 0 -20 9
-30 20 -16 19 -55 25 -86 13z"/>
<path d="M4560 3273 c-8 -3 -24 -16 -36 -28 -11 -13 -31 -26 -42 -30 -12 -3
-22 -11 -22 -16 0 -5 -7 -9 -15 -9 -8 0 -15 -6 -15 -14 0 -8 -13 -17 -30 -21
-16 -4 -30 -11 -30 -16 0 -5 -7 -9 -15 -9 -8 0 -15 -6 -15 -14 0 -8 -13 -17
-30 -21 l-30 -7 0 -859 c0 -757 2 -859 15 -859 8 0 15 7 15 15 0 8 7 15 15 15
8 0 15 5 15 10 0 6 7 10 15 10 8 0 15 7 15 15 0 8 7 15 15 15 8 0 15 5 15 10
0 13 37 50 49 50 5 0 50 40 99 90 50 50 95 90 101 90 8 0 11 228 11 780 0 687
-2 780 -15 780 -8 0 -15 7 -15 15 0 15 -39 20 -70 8z"/>
<path d="M1250 3230 c0 -29 -4 -40 -15 -40 -11 0 -15 -12 -15 -45 0 -33 4 -45
15 -45 8 0 15 -7 15 -15 0 -10 -10 -15 -30 -15 l-30 0 0 -705 c0 -620 2 -705
15 -705 8 0 15 -7 15 -15 0 -8 7 -15 15 -15 8 0 15 -7 15 -15 0 -8 7 -15 15
-15 8 0 15 -7 15 -15 0 -8 5 -15 11 -15 6 0 36 -25 65 -55 30 -30 58 -55 63
-55 5 0 23 -14 39 -30 17 -17 35 -30 40 -30 5 0 12 -9 15 -20 7 -26 37 -26 37
-1 0 11 6 22 13 25 10 5 10 7 0 12 -7 3 -13 14 -13 24 0 10 6 21 13 24 10 5
10 7 0 12 -15 7 -18 64 -3 64 6 0 10 47 10 120 0 73 -4 120 -10 120 -5 0 -10
7 -10 15 0 8 5 15 10 15 7 0 10 217 10 630 l0 630 -25 0 c-16 0 -25 6 -25 15
0 8 -9 15 -20 15 -11 0 -20 7 -20 15 0 9 -9 15 -25 15 -16 0 -25 6 -25 15 0 8
-6 15 -14 15 -8 0 -16 7 -20 15 -3 8 -12 15 -21 15 -8 0 -15 4 -15 9 0 5 -11
12 -25 15 -14 4 -25 11 -25 16 0 6 -7 10 -15 10 -8 0 -15 7 -15 15 0 8 -7 15
-15 15 -11 0 -15 -11 -15 -40z"/>
<path d="M2600 2525 c0 -8 -6 -15 -14 -15 -8 0 -16 -7 -20 -15 -3 -8 -17 -15
-31 -15 -16 0 -25 -6 -25 -15 0 -8 -7 -15 -15 -15 -8 0 -15 -4 -15 -9 0 -5
-10 -13 -22 -17 -13 -4 -26 -12 -30 -18 -4 -6 -8 -77 -8 -158 l0 -148 30 0
c25 0 30 -4 30 -24 0 -19 -7 -26 -30 -31 -25 -6 -30 -11 -30 -37 0 -28 2 -30
28 -23 15 3 29 11 30 16 2 5 10 9 18 9 8 0 14 7 14 15 0 8 7 15 15 15 8 0 15
7 15 15 0 9 9 15 23 15 13 0 33 13 47 30 l25 29 293 1 c253 0 292 -2 292 -15
0 -8 6 -15 14 -15 8 0 16 -7 20 -15 3 -8 17 -15 31 -15 16 0 25 -6 25 -15 0
-8 7 -15 15 -15 8 0 15 -7 15 -15 0 -8 6 -15 14 -15 8 0 16 -4 18 -9 2 -5 15
-13 31 -16 l27 -7 0 211 c0 181 -2 211 -15 211 -8 0 -15 7 -15 15 0 8 -7 15
-15 15 -8 0 -15 5 -15 10 0 6 -7 10 -15 10 -8 0 -15 7 -15 15 0 9 -9 15 -25
15 -14 0 -28 7 -31 15 -4 8 -12 15 -20 15 -8 0 -14 7 -14 15 0 13 -33 15 -235
15 -150 0 -235 -4 -235 -10 0 -5 -20 -10 -45 -10 -25 0 -45 5 -45 10 0 6 -7
10 -15 10 -8 0 -15 -4 -15 -10 0 -5 -7 -10 -15 -10 -8 0 -15 5 -15 10 0 6 -7
10 -15 10 -8 0 -15 -7 -15 -15z"/>
<path d="M2756 1885 c-8 -8 -20 -15 -26 -15 -6 0 -13 -6 -16 -14 -3 -8 -16
-17 -30 -20 -13 -4 -24 -11 -24 -16 0 -6 -7 -10 -15 -10 -8 0 -15 -7 -15 -15
0 -8 -7 -15 -15 -15 -8 0 -15 -7 -15 -15 0 -8 -9 -15 -20 -15 -11 0 -20 -7
-20 -15 0 -9 -9 -15 -25 -15 -16 0 -25 -6 -25 -15 0 -8 -7 -15 -15 -15 -8 0
-15 -7 -15 -15 0 -8 -4 -15 -10 -15 -5 0 -19 -8 -30 -17 -19 -16 -20 -29 -20
-205 0 -119 -4 -188 -10 -188 -5 0 -10 -7 -10 -15 0 -8 5 -15 10 -15 15 0 12
-57 -2 -64 -10 -5 -10 -7 0 -12 8 -4 12 -31 12 -84 0 -53 -4 -80 -12 -84 -10
-5 -10 -7 0 -12 14 -7 17 -94 2 -94 -5 0 -10 -7 -10 -15 0 -8 5 -15 10 -15 6
0 10 -11 10 -25 0 -14 -4 -25 -10 -25 -5 0 -10 -9 -10 -20 0 -11 5 -20 10 -20
6 0 10 -7 10 -15 0 -8 -4 -15 -10 -15 -5 0 -10 -13 -10 -30 0 -16 5 -30 10
-30 6 0 10 -11 10 -25 0 -14 -4 -25 -10 -25 -5 0 -10 -9 -10 -20 0 -11 5 -20
10 -20 6 0 10 -11 10 -25 0 -16 6 -25 15 -25 8 0 15 -7 15 -15 0 -8 7 -15 15
-15 8 0 15 -7 15 -15 0 -8 7 -15 15 -15 8 0 15 -7 15 -15 0 -8 7 -15 15 -15 8
0 15 -7 15 -15 0 -8 7 -15 15 -15 8 0 15 -7 15 -15 0 -8 7 -15 15 -15 8 0 15
-7 15 -15 0 -8 7 -15 15 -15 8 0 15 -7 15 -15 0 -8 7 -15 15 -15 8 0 15 -7 15
-15 0 -8 7 -15 15 -15 8 0 15 -7 15 -15 0 -8 5 -15 11 -15 7 0 22 -11 35 -25
23 -25 64 -34 64 -15 0 6 -4 10 -10 10 -14 0 -12 37 3 44 10 5 10 7 0 12 -15
7 -18 94 -3 94 6 0 10 7 10 15 0 8 -4 15 -10 15 -5 0 -10 7 -10 15 0 8 5 15
10 15 6 0 10 14 10 30 0 17 -4 30 -10 30 -5 0 -10 7 -10 15 0 8 5 15 10 15 6
0 10 11 10 25 0 14 -4 25 -10 25 -5 0 -10 7 -10 15 0 8 5 15 10 15 15 0 12 67
-2 74 -10 5 -10 7 0 12 6 3 12 21 12 39 0 18 -6 36 -12 39 -10 5 -10 7 0 12
14 7 17 64 2 64 -5 0 -10 7 -10 15 0 8 5 15 10 15 15 0 12 87 -2 94 -10 5 -10
7 0 12 14 7 16 44 2 44 -5 0 -10 7 -10 15 0 8 5 15 10 15 15 0 13 147 -2 154
-10 5 -10 7 0 12 9 4 12 83 12 345 0 287 -2 339 -14 339 -8 0 -21 -7 -30 -15z"/>
<path d="M3049 1703 c-1 -109 -2 -440 -3 -736 -1 -466 -3 -539 -16 -547 -11
-7 -12 -12 -3 -18 6 -4 15 -20 18 -35 6 -21 4 -27 -9 -27 -9 0 -16 -4 -16 -10
0 -5 4 -10 9 -10 5 0 11 -25 13 -55 3 -30 7 -58 11 -61 3 -3 23 13 45 35 22
23 45 41 51 41 6 0 11 7 11 15 0 8 7 15 15 15 8 0 15 7 15 15 0 8 7 15 15 15
8 0 15 7 15 15 0 8 7 15 15 15 8 0 15 7 15 15 0 8 7 15 15 15 8 0 15 7 15 15
0 8 7 15 15 15 8 0 15 7 15 15 0 8 4 15 10 15 12 0 80 68 80 80 0 6 7 10 15
10 13 0 15 67 15 540 0 473 -2 540 -15 540 -8 0 -15 7 -15 15 0 8 -7 15 -15
15 -8 0 -15 7 -15 15 0 8 -7 15 -15 15 -8 0 -15 7 -15 15 0 9 -9 15 -24 15
-13 0 -26 7 -30 15 -3 8 -12 15 -21 15 -8 0 -15 7 -15 15 0 8 -7 15 -15 15 -8
0 -15 4 -15 10 0 5 -11 12 -25 16 -14 3 -25 12 -25 20 0 8 -7 14 -15 14 -8 0
-15 5 -15 10 0 6 -8 14 -17 17 -10 4 -24 13 -31 20 -7 7 -20 13 -28 13 -12 0
-14 -34 -15 -197z"/>
</g>
</svg>
